<?xml version="1.0" encoding="UTF-8" standalone="no"?>
<!-- Generator: Gravit.io -->

<svg
   xmlns:dc="http://purl.org/dc/elements/1.1/"
   xmlns:cc="http://creativecommons.org/ns#"
   xmlns:rdf="http://www.w3.org/1999/02/22-rdf-syntax-ns#"
   xmlns:svg="http://www.w3.org/2000/svg"
   xmlns="http://www.w3.org/2000/svg"
   xmlns:xlink="http://www.w3.org/1999/xlink"
   xmlns:sodipodi="http://sodipodi.sourceforge.net/DTD/sodipodi-0.dtd"
   xmlns:inkscape="http://www.inkscape.org/namespaces/inkscape"
   style="isolation:isolate"
   viewBox="0 0 48 48"
   width="48"
   height="48"
   version="1.1"
   id="svg23"
   sodipodi:docname="anjuta.svg"
   inkscape:version="0.92.4 (unknown)">
  <metadata
     id="metadata27">
    <rdf:RDF>
      <cc:Work
         rdf:about="">
        <dc:format>image/svg+xml</dc:format>
        <dc:type
           rdf:resource="http://purl.org/dc/dcmitype/StillImage" />
      </cc:Work>
    </rdf:RDF>
  </metadata>
  <sodipodi:namedview
     pagecolor="#ffffff"
     bordercolor="#666666"
     borderopacity="1"
     objecttolerance="10"
     gridtolerance="10"
     guidetolerance="10"
     inkscape:pageopacity="0"
     inkscape:pageshadow="2"
     inkscape:window-width="640"
     inkscape:window-height="480"
     id="namedview25"
     showgrid="false"
     showguides="true"
     inkscape:guide-bbox="true"
     inkscape:snap-bbox="true"
     inkscape:bbox-paths="true"
     inkscape:bbox-nodes="true"
     inkscape:snap-bbox-edge-midpoints="true"
     inkscape:snap-bbox-midpoints="true"
     inkscape:object-paths="true"
     inkscape:snap-intersection-paths="true"
     inkscape:snap-smooth-nodes="true"
     inkscape:snap-midpoints="true"
     inkscape:snap-object-midpoints="true"
     inkscape:snap-center="true"
     inkscape:zoom="5.6568542"
     inkscape:cx="38.096583"
     inkscape:cy="34.56295"
     inkscape:current-layer="svg23" />
  <defs
     id="defs5">
    <linearGradient
       inkscape:collect="always"
       id="linearGradient842">
      <stop
         style="stop-color:#d76cff;stop-opacity:1;"
         offset="0"
         id="stop838" />
      <stop
         style="stop-color:#ba00ff;stop-opacity:1"
         offset="1"
         id="stop840" />
    </linearGradient>
    <clipPath
       id="_clipPath_Sd08GpmkdqIAy1UR239YV2vyPFIZuRyU">
      <rect
         width="48"
         height="48"
         id="rect2" />
    </clipPath>
    <linearGradient
       inkscape:collect="always"
       xlink:href="#linearGradient842"
       id="linearGradient844"
       x1="5.3387523"
       y1="34.895164"
       x2="25.679449"
       y2="14.554467"
       gradientUnits="userSpaceOnUse" />
  </defs>
  <g
     id="g836"
     style="fill:url(#linearGradient844);fill-opacity:1">
    <path
       sodipodi:nodetypes="ccccccccccccscccccccccsccccsccccccccccccccscccascccscscccccsccccccccscccccccccccccccc"
       inkscape:connector-curvature="0"
       id="path1264-5"
       d="m 23.999999,2.0000169 c -5.804659,0.005 -11.370206,2.304891 -15.4863277,6.3945312 -0.4115702,0.378336 -0.6460067,0.911661 -0.6464844,1.470703 2e-7,1.1045699 0.8954306,1.9999999 2,1.9999999 0.5297251,-5.97e-4 1.0375771,-0.211324 1.4121091,-0.585937 3.372702,-3.3765378 7.948271,-5.2754729 12.720703,-5.2792971 9.941134,-2.15e-5 18.000022,8.0588661 18,18.0000001 2e-5,9.03526 -6.664927,16.493003 -15.341797,17.78125 0.04076,-0.02591 0.08344,-0.05045 0.09375,-0.08398 0.212141,-0.689915 0.349164,-2.006305 0.349609,-3.359375 8.34e-4,-2.480202 -0.36141,-3.655202 -1.785156,-5.773438 -1.257875,-1.871471 -1.958328,-3.446087 -2.228515,-5.011719 -0.131868,-0.764145 -0.110873,-1.580078 0.04102,-1.580078 0.03613,0 0.223852,0.162967 0.417969,0.363282 0.787658,0.812447 2.553536,1.977122 3.445313,2.273437 0.351965,0.116901 0.491747,0.238339 0.859374,0.742187 0.979877,1.343093 2.617546,1.869017 4.396485,1.41211 0.906086,-0.232706 2.164004,-0.89057 2.673828,-1.400391 0.983403,-0.983395 1.407905,-2.694869 1.029297,-4.148437 -0.196314,-0.753714 -0.42371,-1.231813 -1.021484,-2.144532 -0.289455,-0.441977 -0.779814,-1.365238 -1.087891,-2.052734 -0.763453,-1.703735 -1.89527,-3.919914 -2.560547,-5.013672 -0.303112,-0.49833 -0.550781,-0.930574 -0.550781,-0.957031 0,-0.02835 0.276823,-0.464145 0.615234,-0.96875 1.196431,-1.783937 1.445094,-2.506995 1.136719,-3.314453 -0.16168,-0.423383 -0.323694,-0.687492 -0.712306,-0.8885629 -0.204939,-0.106167 -2.795857,0.5304319 -3.219295,0.5228729 -0.0652,-0.0011 -0.111328,-0.117597 -0.111328,-0.28125 0,-1.4845989 -0.759041,-3.5173722 -2.109415,-2.8374352 -0.734593,0.3698645 -2.379599,1.4821023 -3.240234,2.1914063 l -0.78711,0.6484379 -1.878906,0.0039 c -2.064779,0.0054 -2.900041,0.129514 -4.558594,0.677734 -1.463223,0.483666 -3.41747,1.538308 -4.597656,2.480469 -1.7554687,1.401449 -2.3457026,2.15932 -2.3457026,2.15932 0,0 1.1858726,0.459629 1.2195866,0.537109 0.04527,0.103899 -1.018584,1.181418 -1.7957585,1.84654 -1.7394542,1.488604 -3.5990513,4.311942 -3.5990513,4.311942 0,0 2.0464998,-0.759821 1.9948727,-0.380028 -1.2954623,2.243807 -1.6400205,7.920382 -1.1315353,9.860797 0.8241523,3.573276 3.0577461,7.653139 5.0345404,9.844008 1.677791,1.85949 8.526112,4.532926 13.355465,4.539064 12.150264,0 22,-9.849736 22,-22 0,-12.150264 -9.849736,-22.0000001 -22,-22.0000001 z m 0.573256,10.5812091 c 0,0 1.168871,-0.407359 1.194201,-0.366349 0.09424,0.152655 0.398793,0.48521 0.648564,0.670372 0.25893,0.191953 0.597606,0.06498 0.860386,0.441306 0.302843,0.433704 -0.668028,1.275986 -0.668028,1.275986 -0.315734,0.507931 -0.506399,0.466055 -0.342749,0.961929 0.05963,0.180662 0.344585,0.623808 0.634766,0.984375 0.971591,1.207786 2.36366,3.753871 3.589843,6.566406 0.272211,0.624378 0.748052,1.503432 1.078125,1.990235 0.452146,0.666897 0.591797,0.944035 0.591797,1.185547 0,0.286374 -0.03634,0.33143 -0.390625,0.488281 -0.6641,0.293594 -0.774718,0.272586 -0.90625,-0.164063 -0.23894,-0.793247 -0.78942,-1.263958 -1.6875,-1.447265 -0.666995,-0.136063 -1.180076,-0.356696 -1.822265,-0.78125 -0.641187,-0.423912 -1.760366,-1.484935 -2.4375,-2.3125 -0.623816,-0.762482 -1.065097,-1.013672 -1.789063,-1.013672 -0.726767,0 -1.457492,0.402008 -2.353515,1.294922 -1.181795,1.177701 -1.673582,2.43349 -1.675782,4.285156 -0.0019,1.583622 0.362126,3.088974 1.212891,5.021484 0.432643,0.982791 1.343368,2.556439 1.980469,3.421875 0.714793,0.970999 1.001205,2.152798 0.910156,3.751954 -0.02959,0.519647 -0.07988,1.011734 -0.111328,1.09375 -0.06254,0.163275 -0.195505,0.168324 -1.109375,0.05078 C 17.364722,39.386834 13.236842,36.839034 10.679692,33.005875 9.3667589,31.0378 9.0688093,30.017381 9.1523482,27.757828 9.2073552,26.270017 9.3575036,25.445023 9.8300825,24.02736 10.179579,22.978919 10.177481,22.826347 9.7988325,21.937516 9.7502955,21.823563 9.969465,21.59014 10.72852,20.941422 c 1.205217,-1.030034 2.269853,-1.838059 3.769531,-2.861328 1.029848,-0.702727 1.155127,-0.818254 1.373047,-1.263672 0.201668,-0.412233 0.230629,-0.563507 0.185547,-0.957031 -0.02947,-0.257235 -0.06475,-0.569328 -0.07812,-0.691406 -0.02223,-0.202583 0.04233,-0.245891 0.742187,-0.507813 1.651541,-0.617839 2.880312,-1.425197 4.330961,-1.111496 1.290965,0.120266 2.573592,-0.493818 3.521592,-0.967456 z m -0.629897,29.414885 c 0.04549,-4.26e-4 0.0867,6.88e-4 0.132813,0 -0.0257,1.08e-4 -0.05045,0.0039 -0.07617,0.0039 -0.01871,-2.7e-5 -0.03792,-0.0038 -0.05664,-0.0039 z"
       style="opacity:1;vector-effect:none;fill:url(#linearGradient844);fill-opacity:1;fill-rule:evenodd;stroke:none;stroke-width:4.08604908;stroke-linecap:butt;stroke-linejoin:miter;stroke-miterlimit:4;stroke-dasharray:none;stroke-dashoffset:0;stroke-opacity:1;paint-order:normal" />
  </g>
</svg>
