<?xml version="1.0" encoding="UTF-8" standalone="no"?>
<!-- Created with Inkscape (http://www.inkscape.org/) -->

<svg
   xmlns:dc="http://purl.org/dc/elements/1.1/"
   xmlns:cc="http://creativecommons.org/ns#"
   xmlns:rdf="http://www.w3.org/1999/02/22-rdf-syntax-ns#"
   xmlns:svg="http://www.w3.org/2000/svg"
   xmlns="http://www.w3.org/2000/svg"
   xmlns:xlink="http://www.w3.org/1999/xlink"
   xmlns:sodipodi="http://sodipodi.sourceforge.net/DTD/sodipodi-0.dtd"
   xmlns:inkscape="http://www.inkscape.org/namespaces/inkscape"
   width="64"
   height="64"
   viewBox="0 0 16.933333 16.933334"
   version="1.1"
   id="svg8"
   inkscape:version="0.92.4 5da689c313, 2019-01-14"
   sodipodi:docname="gimp.svg">
  <defs
     id="defs2">
    <linearGradient
       inkscape:collect="always"
       id="linearGradient824">
      <stop
         style="stop-color:#f199c5;stop-opacity:1"
         offset="0"
         id="stop820" />
      <stop
         style="stop-color:#f4b281;stop-opacity:0.96862745"
         offset="1"
         id="stop822" />
    </linearGradient>
    <linearGradient
       inkscape:collect="always"
       xlink:href="#linearGradient824"
       id="linearGradient826"
       x1="10.42552"
       y1="281.99924"
       x2="6.6837468"
       y2="295.09546"
       gradientUnits="userSpaceOnUse"
       gradientTransform="rotate(135,8.6071018,288.48337)" />
    <linearGradient
       inkscape:collect="always"
       xlink:href="#linearGradient824"
       id="linearGradient855"
       x1="55"
       y1="54"
       x2="10"
       y2="19"
       gradientUnits="userSpaceOnUse" />
  </defs>
  <sodipodi:namedview
     id="base"
     pagecolor="#ffffff"
     bordercolor="#666666"
     borderopacity="1.0"
     inkscape:pageopacity="0.0"
     inkscape:pageshadow="2"
     inkscape:zoom="5.6"
     inkscape:cx="28.979904"
     inkscape:cy="23.300693"
     inkscape:document-units="mm"
     inkscape:current-layer="layer1"
     showgrid="true"
     units="px"
     inkscape:window-width="1920"
     inkscape:window-height="1023"
     inkscape:window-x="0"
     inkscape:window-y="31"
     inkscape:window-maximized="1">
    <inkscape:grid
       type="xygrid"
       id="grid815" />
  </sodipodi:namedview>
  <metadata
     id="metadata5">
    <rdf:RDF>
      <cc:Work
         rdf:about="">
        <dc:format>image/svg+xml</dc:format>
        <dc:type
           rdf:resource="http://purl.org/dc/dcmitype/StillImage" />
        <dc:title></dc:title>
      </cc:Work>
    </rdf:RDF>
  </metadata>
  <g
     inkscape:label="Capa 1"
     inkscape:groupmode="layer"
     id="layer1"
     transform="translate(0,-280.06665)">
    <path
       style="opacity:1;fill:none;fill-opacity:1;stroke:url(#linearGradient826);stroke-width:1.5;stroke-linecap:round;stroke-miterlimit:4;stroke-dasharray:none;stroke-opacity:1"
       d="m 1.8638656,291.22133 c -0.3551882,-0.87589 -0.5327809,-1.80694 -0.5327795,-2.73799 2.8e-6,-1.8621 0.7103701,-3.7242 2.1311051,-5.14493 2.8414706,-2.84147 7.4484018,-2.84148 10.2898758,0 2.841472,2.84147 2.841469,7.4484 -1e-6,10.28987 -2.841471,2.84147 -7.4484035,2.84148 -10.289876,0"
       id="path817"
       inkscape:connector-curvature="0"
       sodipodi:nodetypes="cssssc" />
    <path
       style="font-style:normal;font-variant:normal;font-weight:bold;font-stretch:condensed;font-size:6.08574438px;line-height:1.25;font-family:'Roboto Condensed';-inkscape-font-specification:'Roboto Condensed, Bold Condensed';letter-spacing:0px;word-spacing:0px;fill:url(#linearGradient855);fill-opacity:1;stroke:none;stroke-width:0.57503092"
       d="M 17.316406 21.853516 C 15.89313 21.853516 14.747477 22.466448 13.880859 23.689453 C 13.020568 24.912483 12.591797 26.634896 12.591797 28.859375 L 12.591797 34.761719 C 12.591797 37.003911 13.037768 38.73308 13.929688 39.947266 C 14.827933 41.161401 16.015886 41.767578 17.496094 41.767578 C 18.641041 41.767578 19.587555 41.453434 20.333984 40.824219 C 21.080414 40.186109 21.640457 39.450271 22.013672 38.617188 L 22.013672 31.412109 L 17.496094 31.412109 L 17.496094 34.072266 L 19.318359 34.072266 L 19.318359 37.541016 C 19.153892 37.939579 18.942946 38.241218 18.683594 38.445312 C 18.430567 38.648903 18.033776 38.75 17.496094 38.75 C 16.774967 38.75 16.225244 38.426276 15.845703 37.779297 C 15.472488 37.123473 15.285156 36.117662 15.285156 34.761719 L 15.285156 28.833984 C 15.285156 27.504599 15.472488 26.516095 15.845703 25.869141 C 16.218918 25.213292 16.734708 24.884766 17.392578 24.884766 C 18.063099 24.884766 18.560203 25.137406 18.882812 25.642578 C 19.211751 26.13888 19.385324 26.931393 19.404297 28.021484 L 21.9375 28.021484 L 21.957031 27.943359 C 21.925403 25.984758 21.527125 24.481342 20.761719 23.435547 C 19.996313 22.380933 18.847219 21.853516 17.316406 21.853516 z M 24.205078 22.132812 L 24.205078 41.488281 L 26.890625 41.488281 L 26.890625 22.132812 L 24.205078 22.132812 z M 29.101562 22.132812 L 29.101562 41.488281 L 31.787109 41.488281 L 31.787109 35.865234 L 31.548828 28.447266 L 31.605469 28.433594 L 34.214844 41.486328 L 36.009766 41.486328 L 38.646484 28.326172 L 38.703125 28.341797 L 38.476562 35.865234 L 38.476562 41.488281 L 41.162109 41.488281 L 41.162109 22.132812 L 37.640625 22.132812 L 35.136719 36.34375 L 35.080078 36.34375 L 32.603516 22.132812 L 29.101562 22.132812 z M 43.191406 22.132812 L 43.191406 41.488281 L 45.896484 41.488281 L 45.896484 34.548828 L 47.992188 34.548828 C 49.364856 34.548828 50.45101 33.982044 51.248047 32.847656 C 52.051406 31.7044 52.453125 30.202887 52.453125 28.341797 C 52.453125 26.489526 52.054844 24.990913 51.257812 23.847656 C 50.460776 22.7044 49.371183 22.132812 47.992188 22.132812 L 43.191406 22.132812 z M 45.896484 25.164062 L 47.992188 25.164062 C 48.574149 25.164063 49.015192 25.470554 49.3125 26.082031 C 49.61613 26.68469 49.767578 27.445487 49.767578 28.367188 C 49.767578 29.280019 49.61613 30.035117 49.3125 30.628906 C 49.008865 31.222695 48.567822 31.519531 47.992188 31.519531 L 45.896484 31.519531 L 45.896484 25.164062 z "
       transform="matrix(0.26458333,0,0,0.26458333,0,280.06665)"
       id="path827" />
  </g>
</svg>
