<?xml version="1.0" encoding="UTF-8" standalone="no"?>
<!-- Created with Inkscape (http://www.inkscape.org/) -->

<svg
   xmlns:dc="http://purl.org/dc/elements/1.1/"
   xmlns:cc="http://creativecommons.org/ns#"
   xmlns:rdf="http://www.w3.org/1999/02/22-rdf-syntax-ns#"
   xmlns:svg="http://www.w3.org/2000/svg"
   xmlns="http://www.w3.org/2000/svg"
   xmlns:xlink="http://www.w3.org/1999/xlink"
   xmlns:sodipodi="http://sodipodi.sourceforge.net/DTD/sodipodi-0.dtd"
   xmlns:inkscape="http://www.inkscape.org/namespaces/inkscape"
   width="64"
   height="64"
   viewBox="0 0 16.933333 16.933334"
   version="1.1"
   id="svg8"
   inkscape:version="0.92.4 5da689c313, 2019-01-14"
   sodipodi:docname="preferences-system.svg">
  <defs
     id="defs2">
    <linearGradient
       inkscape:collect="always"
       id="linearGradient4556">
      <stop
         style="stop-color:#8b39de;stop-opacity:0.94915253"
         offset="0"
         id="stop4552" />
      <stop
         style="stop-color:#c059e1;stop-opacity:1"
         offset="1"
         id="stop4554" />
    </linearGradient>
    <linearGradient
       inkscape:collect="always"
       xlink:href="#linearGradient4556"
       id="linearGradient4558"
       x1="3.4458756"
       y1="280.53815"
       x2="15.345075"
       y2="294.12045"
       gradientUnits="userSpaceOnUse" />
  </defs>
  <sodipodi:namedview
     id="base"
     pagecolor="#ffffff"
     bordercolor="#666666"
     borderopacity="1.0"
     inkscape:pageopacity="0.0"
     inkscape:pageshadow="2"
     inkscape:zoom="5.8439955"
     inkscape:cx="16.194166"
     inkscape:cy="37.080326"
     inkscape:document-units="mm"
     inkscape:current-layer="layer1"
     showgrid="false"
     units="px"
     inkscape:window-width="1920"
     inkscape:window-height="1031"
     inkscape:window-x="0"
     inkscape:window-y="26"
     inkscape:window-maximized="1" />
  <metadata
     id="metadata5">
    <rdf:RDF>
      <cc:Work
         rdf:about="">
        <dc:format>image/svg+xml</dc:format>
        <dc:type
           rdf:resource="http://purl.org/dc/dcmitype/StillImage" />
        <dc:title></dc:title>
      </cc:Work>
    </rdf:RDF>
  </metadata>
  <g
     inkscape:label="Capa 1"
     inkscape:groupmode="layer"
     id="layer1"
     transform="translate(0,-280.06664)">
    <path
       style="opacity:1;fill:none;fill-opacity:1;stroke:url(#linearGradient4558);stroke-width:1.5;stroke-linecap:round;stroke-linejoin:round;stroke-miterlimit:4;stroke-dasharray:none;stroke-opacity:1"
       d="m 11.638765,292.86175 1.111712,0.58314 c 0.34393,0.18047 0.76307,0.0795 0.957269,-0.25695 l 1.34071,-2.32128 c 0.194201,-0.33636 0.07942,-0.76373 -0.256958,-0.95793 l -1.047139,-0.67236 c 0.02705,-0.21219 0.04128,-0.42582 0.04261,-0.63973 -0.0021,-0.20545 -0.01611,-0.41061 -0.04194,-0.61444 l 1.046473,-0.66169 c 0.336362,-0.19421 0.451159,-0.6209 0.256958,-0.95728 l -1.34071,-2.32195 c -0.194199,-0.33634 -0.612168,-0.4345 -0.957269,-0.25628 l -1.091741,0.56384 c -0.336678,-0.25485 -0.7025,-0.46871 -1.089743,-0.63707 l -0.04993,-1.23886 c 0,-0.38839 -0.312577,-0.70098 -0.7009769,-0.70098 H 7.1373315 c -0.3884,0 -0.6827504,0.31301 -0.7009773,0.70098 l -0.058581,1.23753 c -0.3921377,0.16757 -0.7627048,0.38169 -1.1037231,0.63773 L 4.1843072,283.785 c -0.3451022,-0.17822 -0.7637358,-0.0801 -0.9579356,0.25628 l -1.3400446,2.32195 c -0.1941999,0.33638 -0.080069,0.76307 0.2562925,0.95728 l 1.0438103,0.66036 c -0.024994,0.20432 -0.038108,0.40993 -0.039276,0.61577 0.00229,0.21329 0.017407,0.42625 0.045267,0.63773 l -1.0498014,0.67436 c -0.3363717,0.1942 -0.4504924,0.62157 -0.2562926,0.95793 l 1.3400447,2.32128 c 0.1941998,0.33635 0.6140054,0.43742 0.9579356,0.25695 l 1.1123765,-0.58381 c 0.3346815,0.25083 0.6977737,0.46131 1.0817551,0.62709 l 0.057915,1.23287 c 0,0.3884 0.3125774,0.70098 0.7009773,0.70098 h 2.6807551 c 0.3883999,0 0.6852969,-0.3129 0.7009769,-0.70098"
       id="rect4522"
       inkscape:connector-curvature="0"
       sodipodi:nodetypes="cccccccccccccccsscccccccccccccccccssc" />
  </g>
</svg>
